<?xml version="1.0" encoding="UTF-8" standalone="no"?><!-- Generator: Gravit.io --><svg xmlns="http://www.w3.org/2000/svg" xmlns:xlink="http://www.w3.org/1999/xlink" style="isolation:isolate" viewBox="0 0 2020.064 3286.478" width="2020.064pt" height="3286.478pt"><defs><clipPath id="_clipPath_xZ079OUAqBvLcyk8s3G1vArirVLMrGqZ"><rect width="2020.064" height="3286.478"/></clipPath></defs><g clip-path="url(#_clipPath_xZ079OUAqBvLcyk8s3G1vArirVLMrGqZ)"><g><g><path d=" M 2020.064 2438.425 L 2020.064 1338.232 L 2020.064 1338.232 L 1332.009 1338.232 L 1332.009 1338.232 L 1332.009 1338.232 L 1332.009 1338.232 L 1332.009 1602.993 L 1332.009 2438.425 L 1332.009 3273.857 C 1722.671 3204.502 2020.064 2856.608 2020.064 2438.425 L 2020.064 2438.425 L 2020.064 2438.425 L 2020.064 2438.425 L 2020.064 2438.425 L 2020.064 2438.425 Z  M 851.453 670.812 L 851.453 671.66 L 851.453 671.66 L 851.453 671.66 L 12.774 671.66 C 94.022 288.139 434.827 0 842.4 0 C 845.412 0 848.42 0.016 851.427 0.038 L 1969.18 0.002 C 1997.263 0.001 2020.064 22.8 2020.064 50.883 L 2020.064 670.812 L 2020.064 670.812 L 1373.332 670.812 L 851.453 670.812 L 851.453 670.812 L 851.453 670.812 L 851.453 670.812 Z  M 0 1338.232 L 0 3235.598 C 0 3263.681 22.8 3286.48 50.883 3286.478 L 665.438 3286.443 L 665.438 1389.115 L 665.438 1338.232 L 0 1338.232 L 0 1338.232 Z  M 1173.749 1338.232 L 1173.749 1336.811 L 1173.749 1338.232 Z " fill-rule="evenodd" fill="rgb(0,0,0)"/></g></g></g></svg>